<svg xmlns="http://www.w3.org/2000/svg" viewBox="0 0 100 100" role="img" aria-label="Cownting">
  <rect width="100" height="100" rx="22" fill="#5f8b6a"/>
  <!-- ears -->
  <ellipse cx="26" cy="46" rx="12" ry="9" fill="#f4ede0" transform="rotate(-28 26 46)"/>
  <ellipse cx="74" cy="46" rx="12" ry="9" fill="#f4ede0" transform="rotate(28 74 46)"/>
  <!-- head -->
  <path d="M50 30c18 0 30 12 30 28 0 16-13 26-30 26S20 74 20 58c0-16 12-28 30-28z" fill="#f4ede0"/>
  <!-- spots -->
  <path d="M35 46c6-4 12-2 12 3s-9 8-13 4-2-5 1-7z" fill="#4a3b30"/>
  <ellipse cx="66" cy="52" rx="7" ry="5" fill="#4a3b30"/>
  <!-- eyes -->
  <circle cx="40" cy="58" r="3.4" fill="#4a3b30"/>
  <circle cx="60" cy="58" r="3.4" fill="#4a3b30"/>
  <!-- snout -->
  <ellipse cx="50" cy="74" rx="18" ry="12" fill="#e7a9a0"/>
  <ellipse cx="43" cy="74" rx="2.6" ry="3.4" fill="#4a3b30"/>
  <ellipse cx="57" cy="74" rx="2.6" ry="3.4" fill="#4a3b30"/>
</svg>
